<?xml version="1.0" standalone="no"?>
<!DOCTYPE svg PUBLIC "-//W3C//DTD SVG 20010904//EN"
 "http://www.w3.org/TR/2001/REC-SVG-20010904/DTD/svg10.dtd">
<svg version="1.0" xmlns="http://www.w3.org/2000/svg"
 width="700.000000pt" height="700.000000pt" viewBox="0 0 700.000000 700.000000"
 preserveAspectRatio="xMidYMid meet">
<metadata>
Created by potrace 1.11, written by Peter Selinger 2001-2013
</metadata>
<g transform="translate(0.000000,700.000000) scale(0.100000,-0.100000)"
fill="#000000" stroke="none">
<path d="M1299 5715 c-1 -181 -9 -2529 -11 -3435 l-3 -1054 580 -1 c319 0 587
1 595 3 13 3 15 121 15 1008 0 552 3 1004 6 1004 5 0 185 -186 328 -339 18
-20 75 -79 125 -132 50 -52 157 -165 238 -250 80 -84 174 -183 207 -218 l61
-64 67 2 68 1 70 74 c39 41 144 152 235 247 91 95 208 218 261 273 53 56 139
146 191 201 53 55 119 124 147 154 28 29 52 50 52 45 1 -5 3 -457 3 -1004 l1
-995 592 -3 592 -2 0 2272 -1 2273 -206 -3 -207 -2 -34 -38 c-19 -20 -78 -84
-131 -142 -54 -58 -111 -119 -126 -136 -16 -17 -76 -82 -134 -144 -58 -62
-113 -122 -123 -134 -10 -12 -69 -75 -130 -141 -62 -66 -143 -153 -182 -195
-38 -41 -91 -97 -116 -125 -26 -27 -56 -59 -66 -71 -10 -12 -65 -72 -123 -134
-58 -62 -118 -127 -134 -144 -15 -17 -74 -80 -130 -140 -55 -60 -109 -118
-119 -129 -20 -23 -213 -232 -239 -259 -23 -23 -34 -23 -50 1 -7 10 -54 63
-103 117 -50 54 -112 123 -140 153 -27 30 -59 65 -70 77 -22 23 -149 165 -174
193 -17 19 -167 184 -211 232 -34 37 -79 87 -180 199 -47 52 -101 113 -122
135 -61 67 -80 88 -163 180 -44 48 -85 93 -90 99 -6 6 -74 81 -150 166 -77 85
-149 164 -160 176 -55 59 -171 188 -177 197 -4 7 -76 11 -217 12 l-211 0 -1
-60z"/>
</g>
</svg>
